<svg width="559" height="86" viewBox="0 0 559 86" fill="none" xmlns="http://www.w3.org/2000/svg">
<path d="M53.4141 6.95312H62.2031V85H52.5938L9.23438 18.6719V85H0.328125V6.95312H12.0469L53.4141 70.8203V6.95312ZM73.6875 46.9141C73.6875 22.1875 87.75 5.78125 108.844 5.78125C129.938 5.78125 144 22.1875 144 46.9141C144 70.3516 129.938 85.9375 108.844 85.9375C87.75 85.9375 73.6875 70.3516 73.6875 46.9141ZM134.859 46.9141C134.859 26.2891 125.25 14.1016 108.844 14.1016C92.3203 14.1016 82.8281 26.2891 82.8281 46.9141C82.8281 66.25 92.3203 77.5 108.844 77.5C125.25 77.5 134.859 66.25 134.859 46.9141ZM203.883 6.95312V15.3906H180.445V85H171.656V15.3906H148.219V6.95312H203.883ZM265.406 52.8906H246.891V85H237.984V6.95312H270.68C285.211 6.95312 294.82 15.9766 294.82 29.6875C294.82 39.6484 288.844 47.0312 279.234 49.4922C287.906 51.1328 291.656 55.9375 292.828 66.6016L294.938 85H286.266L284.273 67.6562C283.102 57.2266 277.594 52.8906 265.406 52.8906ZM269.508 15.0391H246.891V44.9219H269.508C279.703 44.9219 285.797 39.6484 285.797 30.2734C285.797 20.6641 279.703 15.0391 269.508 15.0391ZM359.156 6.95312V15.3906H315.328V40.9375H355.758V49.375H315.328V76.6797H359.156V85H306.422V6.95312H359.156ZM435.562 85H425.953L418.453 64.1406H385.172L377.789 85H368.062L396.891 6.95312H406.852L435.562 85ZM401.578 17.5L387.867 56.4062H415.641L401.578 17.5ZM492.281 85H445.641V6.95312H454.547V76.6797H492.281V85ZM524.508 0.976562H532.125L531.656 26.875L555.68 18.0859L558.023 25.3516L533.648 33.2031L549 53.125L542.906 57.4609L528.258 36.6016L513.727 57.4609L507.633 53.125L522.867 33.0859L498.609 25.3516L500.953 18.0859L525.094 26.7578L524.508 0.976562Z" fill="white"/>
</svg>
