<svg width="556" height="86" viewBox="0 0 556 86" fill="none" xmlns="http://www.w3.org/2000/svg">
<path d="M52.0703 6.95312H66.3672V85H51.25L15.5078 27.8125V85H0.976562V6.95312H19.0234L52.0703 61.2109V6.95312ZM74.7484 46.9141C74.7484 22.1875 89.2797 5.78125 111.077 5.78125C132.873 5.78125 147.405 22.1875 147.405 46.9141C147.405 70.3516 132.873 85.9375 111.077 85.9375C89.2797 85.9375 74.7484 70.3516 74.7484 46.9141ZM132.639 46.9141C132.639 29.2188 124.67 18.9062 111.077 18.9062C97.3656 18.9062 89.5141 29.2188 89.5141 46.9141C89.5141 63.2031 97.3656 72.6953 111.077 72.6953C124.67 72.6953 132.639 63.2031 132.639 46.9141ZM207.348 6.95312V20.5469H185.083V85H170.786V20.5469H148.52V6.95312H207.348ZM265.712 55.7031H250.478V85H235.947V6.95312H270.869C286.103 6.95312 296.298 15.9766 296.298 29.6875C296.298 39.2969 290.673 46.4453 281.767 49.4922C289.853 51.25 293.369 56.1719 294.541 66.6016L296.65 85H282.47L280.478 68.0078C279.423 59.4531 275.322 55.7031 265.712 55.7031ZM268.759 19.375H250.478V43.2812H268.759C276.962 43.2812 281.884 39.0625 281.884 31.4453C281.884 23.8281 276.962 19.375 268.759 19.375ZM359.406 6.95312V20.5469H319.211V38.4766H356.008V52.0703H319.211V71.4062H359.406V85H304.68V6.95312H359.406ZM436.342 85H421.108L415.248 67.5391H385.717L380.092 85H364.741L392.397 6.95312H408.803L436.342 85ZM400.366 22.6562L389.584 55.8203H411.381L400.366 22.6562ZM491.481 85H442.848V6.95312H457.38V71.4062H491.481V85ZM520.136 0.976562H530.917L529.862 25.3516L552.48 16.5625L555.761 26.875L532.558 33.5547L547.558 52.0703L538.769 58.3984L525.527 38.3594L512.284 58.3984L503.495 52.0703L518.495 33.4375L495.409 26.875L498.691 16.5625L521.308 25.2344L520.136 0.976562Z" fill="#0F0E12"/>
</svg>
