<svg width="172" height="30" viewBox="0 0 172 30" fill="none" xmlns="http://www.w3.org/2000/svg">
<path fill-rule="evenodd" clip-rule="evenodd" d="M15 3.25C8.51065 3.25 3.25 8.51065 3.25 15C3.25 21.4893 8.51065 26.75 15 26.75C21.4893 26.75 26.75 21.4893 26.75 15C26.75 8.51065 21.4893 3.25 15 3.25ZM1.75 15C1.75 7.68223 7.68223 1.75 15 1.75C22.3178 1.75 28.25 7.68223 28.25 15C28.25 22.3178 22.3178 28.25 15 28.25C7.68223 28.25 1.75 22.3178 1.75 15Z" fill="black"/>
<path fill-rule="evenodd" clip-rule="evenodd" d="M15 1.75C15.2053 1.75 15.4015 1.83412 15.5431 1.98276C18.8856 5.49241 20.75 10.1533 20.75 15C20.75 19.8467 18.8856 24.5076 15.5431 28.0172C15.4015 28.1659 15.2053 28.25 15 28.25C14.7947 28.25 14.5985 28.1659 14.4569 28.0172C11.1144 24.5076 9.25 19.8467 9.25 15C9.25 10.1533 11.1144 5.49241 14.4569 1.98276C14.5985 1.83412 14.7947 1.75 15 1.75ZM15 3.61468C12.265 6.76743 10.75 10.8083 10.75 15C10.75 19.1917 12.265 23.2326 15 26.3853C17.735 23.2326 19.25 19.1917 19.25 15C19.25 10.8083 17.735 6.76743 15 3.61468Z" fill="black"/>
<path fill-rule="evenodd" clip-rule="evenodd" d="M1.75 15C1.75 14.5858 2.08579 14.25 2.5 14.25H27.5C27.9142 14.25 28.25 14.5858 28.25 15C28.25 15.4142 27.9142 15.75 27.5 15.75H2.5C2.08579 15.75 1.75 15.4142 1.75 15Z" fill="black"/>
<path d="M171.281 25.4375H158.312V4.625H162.188V21.8125H171.281V25.4375Z" fill="#0F0E12"/>
<path d="M155.938 25.4375H151.875L150.312 20.7812H142.438L140.938 25.4375H136.844L144.219 4.625H148.594L155.938 25.4375ZM146.344 8.8125L143.469 17.6562H149.281L146.344 8.8125Z" fill="#0F0E12"/>
<path d="M134.781 4.625V8.25H124.062V13.0312H133.875V16.6562H124.062V21.8125H134.781V25.4375H120.188V4.625H134.781Z" fill="#0F0E12"/>
<path d="M109.156 17.625H105.094V25.4375H101.219V4.625H110.531C114.594 4.625 117.312 7.03125 117.312 10.6875C117.312 13.25 115.812 15.1562 113.438 15.9688C115.594 16.4375 116.531 17.75 116.844 20.5312L117.406 25.4375H113.625L113.094 20.9062C112.812 18.625 111.719 17.625 109.156 17.625ZM109.969 7.9375H105.094V14.3125H109.969C112.156 14.3125 113.469 13.1875 113.469 11.1562C113.469 9.125 112.156 7.9375 109.969 7.9375Z" fill="#0F0E12"/>
<path d="M92.3125 4.625V8.25H86.375V25.4375H82.5625V8.25H76.625V4.625H92.3125Z" fill="#0F0E12"/>
<path d="M56.3125 15.2812C56.3125 8.6875 60.1875 4.3125 66 4.3125C71.8125 4.3125 75.6875 8.6875 75.6875 15.2812C75.6875 21.5312 71.8125 25.6875 66 25.6875C60.1875 25.6875 56.3125 21.5312 56.3125 15.2812ZM71.75 15.2812C71.75 10.5625 69.625 7.8125 66 7.8125C62.3438 7.8125 60.25 10.5625 60.25 15.2812C60.25 19.625 62.3438 22.1562 66 22.1562C69.625 22.1562 71.75 19.625 71.75 15.2812Z" fill="#0F0E12"/>
<path d="M49.625 4.625H53.4375V25.4375H49.4062L39.875 10.1875V25.4375H36V4.625H40.8125L49.625 19.0938V4.625Z" fill="#0F0E12"/>
</svg>
